{"title":"Journey to the Center of the Earth 2008 1080p BluRay x265 10bit","magnet":"magnet:?xt=urn:btih:bfc281e9998692c1bc794878eb54c4c653e133b8&dn=Journey+to+the+Center+of+the+Earth+2008+1080p+BluRay+x265+10bit&tr=udp%3A%2F%2Ftracker.leechers-paradise.org%3A6969&tr=udp%3A%2F%2Fzer0day.ch%3A1337&tr=udp%3A%2F%2Fopen.demonii.com%3A1337&tr=udp%3A%2F%2Ftracker.coppersurfer.tk%3A6969&tr=udp%3A%2F%2Fexodus.desync.com%3A6969","uploader":"48848448","categoryP":"video","categoryS":"hd___movies","size":"2654419832","seeders":"0","leechers":"0","description":"Video\r\nID                             : 1\r\nFormat                         : HEVC\r\nFormat profile                 : Main <a class=\"__cf_email__\" href=\"/cdn-cgi/l/email-protection\" data-cfemail=\"e1d0d1a1add5\">[email&#xA0;protected]</a><script data-cfhash=\"f9e31\" type=\"text/javascript\">/* <![CDATA[ */!function(t,e,r,n,c,a,p){try{t=document.currentScript||function(){for(t=document.getElementsByTagName('script'),e=t.length;e--;)if(t[e].getAttribute('data-cfhash'))return t[e]}();if(t&&(c=t.previousSibling)){p=t.parentNode;if(a=c.getAttribute('data-cfemail')){for(e='',r='0x'+a.substr(0,2)|0,n=2;a.length-n;n+=2)e+='%'+('0'+('0x'+a.substr(n,2)^r).toString(16)).slice(-2);p.replaceChild(document.createTextNode(decodeURIComponent(e)),c)}p.removeChild(t)}}catch(u){}}()/* ]]> */</script>@Main\r\nDuration                       : 1 h 32 min\r\nBit rate                       : 3 368 kb/s\r\nWidth                          : 1 920 pixels\r\nHeight                         : 1 080 pixels\r\nDisplay aspect ratio           : 16:9\r\nFrame rate mode                : Constant\r\nFrame rate                     : 23.976 (24000/1001) FPS\r\nColor space                    : YUV\r\nChroma subsampling             : 4:2:0\r\nBit depth                      : 10 bits\r\nStream size                    : 2.18 GiB (88%)\r\nWriting library                : x265 2.5+3 [64 bit] 10bit\r\nLanguage                       : English\r\nDefault                        : Yes\r\nForced                         : No\r\n\r\nAudio\r\nID                             : 2\r\nFormat                         : AC-3\r\nDuration                       : 1 h 32 min\r\nBit rate mode                  : Constant\r\nBit rate                       : 448 kb/s\r\nChannel(s)                     : 6 channels\r\nChannel positions              : Front: L C R, Side: L R, LFE\r\nSampling rate                  : 48.0 kHz\r\nFrame rate                     : 31.250 FPS (1536 spf)\r\nBit depth                      : 16 bits\r\nCompression mode               : Lossy\r\nStream size                    : 297 MiB (12%)\r\nLanguage                       : English\r\nDefault                        : Yes","last_updated":"2017-07-18T12:00:34.646Z","parsed":{"xt":"urn:btih:bfc281e9998692c1bc794878eb54c4c653e133b8","dn":"Journey to the Center of the Earth 2008 1080p BluRay x265 10bit","tr":["udp://exodus.desync.com:6969","udp://open.demonii.com:1337","udp://tracker.coppersurfer.tk:6969","udp://tracker.leechers-paradise.org:6969","udp://zer0day.ch:1337"],"infoHash":"bfc281e9998692c1bc794878eb54c4c653e133b8","infoHashBuffer":{"type":"Buffer","data":[191,194,129,233,153,134,146,193,188,121,72,120,235,84,196,198,83,225,51,184]},"name":"Journey to the Center of the Earth 2008 1080p BluRay x265 10bit","announce":["udp://exodus.desync.com:6969","udp://open.demonii.com:1337","udp://tracker.coppersurfer.tk:6969","udp://tracker.leechers-paradise.org:6969","udp://zer0day.ch:1337"],"urlList":[]}}